<?xml version="1.0" standalone="no"?>
<!DOCTYPE svg PUBLIC "-//W3C//DTD SVG 20010904//EN"
 "http://www.w3.org/TR/2001/REC-SVG-20010904/DTD/svg10.dtd">
<svg version="1.0" xmlns="http://www.w3.org/2000/svg"
 width="1060.000000pt" height="1060.000000pt" viewBox="0 0 1060.000000 1060.000000"
 preserveAspectRatio="xMidYMid meet">

<g transform="translate(0.000000,940.000000) scale(0.100000,-0.100000)"
fill="#000000" stroke="none">
<path d="M5790 8879 c-198 -23 -324 -58 -535 -148 -206 -89 -379 -188 -527
-305 -71 -55 -118 -66 -281 -66 -446 0 -916 -115 -1338 -325 -157 -79 -299
-165 -464 -284 -77 -55 -160 -108 -185 -117 -27 -9 -104 -19 -195 -24 -491
-29 -980 -213 -1266 -478 -91 -85 -103 -108 -95 -189 26 -257 166 -579 436
-1003 177 -278 181 -287 210 -503 12 -84 32 -204 46 -267 50 -229 55 -275 64
-540 10 -291 19 -349 80 -493 72 -172 222 -355 380 -466 143 -101 330 -184
531 -237 57 -15 109 -32 115 -38 7 -6 23 -60 38 -121 14 -60 55 -233 91 -384
36 -150 65 -276 65 -280 0 -9 -139 -165 -151 -169 -6 -2 -48 13 -95 33 -259
111 -528 78 -675 -83 -149 -163 -183 -413 -93 -682 92 -276 262 -473 521 -604
181 -91 331 -133 583 -165 231 -30 492 -41 1130 -49 662 -9 1118 -1 1375 21
99 9 412 30 695 47 791 46 900 57 1067 105 118 33 238 45 483 45 1112 1 1867
236 2397 743 251 241 387 444 449 670 34 124 45 367 20 471 -49 207 -227 435
-453 582 -109 70 -284 148 -404 180 -91 23 -294 33 -514 24 -217 -10 -241 -15
-605 -130 -471 -149 -1252 -380 -1286 -380 -15 0 -35 63 -84 270 -66 280 -197
627 -373 992 l-85 177 104 128 c318 388 436 671 421 1007 -11 257 -97 462
-289 691 -104 124 -145 190 -253 410 -51 105 -123 240 -161 300 -85 140 -103
190 -115 334 -44 508 -78 705 -167 959 -70 199 -154 318 -239 341 -44 13 -264
12 -373 0z m327 -201 c33 -31 45 -55 91 -189 46 -133 93 -325 122 -494 22
-128 38 -355 25 -355 -14 0 -204 182 -226 216 -16 27 -23 61 -30 145 -22 271
-92 382 -243 381 -106 0 -238 -43 -352 -114 -73 -45 -114 -48 -244 -18 -135
32 -300 82 -300 91 0 11 43 40 138 92 269 149 542 240 800 266 126 13 189 7
219 -21z m-1262 -557 c262 -39 637 -154 676 -208 8 -10 28 -20 44 -21 40 -2
210 -87 320 -160 361 -237 660 -605 814 -1000 55 -142 80 -181 175 -275 118
-116 173 -188 222 -292 62 -127 85 -225 85 -360 0 -221 -61 -406 -208 -631
-63 -94 -132 -174 -151 -174 -12 0 -16 13 -27 81 -8 50 -73 182 -142 286 -118
179 -247 287 -493 413 -238 121 -266 147 -254 242 l7 51 -69 -38 c-207 -115
-354 -213 -354 -236 0 -4 35 -22 78 -39 247 -102 400 -275 498 -565 35 -100
38 -119 37 -215 0 -80 -6 -128 -26 -203 -54 -204 -160 -420 -249 -509 -128
-128 -1119 -499 -1586 -594 -188 -38 -245 -33 -395 35 -281 128 -493 321 -567
518 -38 99 -60 229 -60 351 0 189 36 313 130 453 40 57 41 61 19 56 -48 -12
-239 -30 -245 -24 -18 18 127 155 327 310 93 72 119 109 119 169 0 58 -16 73
-116 104 -127 41 -294 66 -449 67 -131 2 -143 0 -177 -21 -51 -31 -80 -75 -86
-127 -4 -39 -1 -48 27 -76 26 -25 37 -30 59 -24 15 3 98 9 185 12 125 4 157 3
157 -8 0 -7 -38 -51 -84 -98 -87 -89 -136 -169 -136 -220 0 -16 9 -46 21 -65
24 -41 19 -56 -21 -56 -37 0 -80 -16 -80 -30 0 -6 13 -22 29 -35 15 -14 34
-38 41 -55 16 -39 -1 -92 -76 -242 -121 -242 -158 -372 -158 -568 -1 -128 1
-143 43 -303 31 -119 41 -171 33 -179 -24 -24 -269 54 -434 139 -227 116 -378
288 -456 517 -30 88 -35 117 -40 230 -3 92 0 163 13 255 20 140 24 105 -47
361 -69 245 -95 550 -64 760 36 244 107 511 172 646 24 51 44 95 44 100 0 13
109 202 175 304 67 103 92 130 122 133 13 1 19 7 16 17 -18 70 508 565 633
596 16 4 35 15 41 25 40 56 389 231 607 304 382 128 887 174 1281 116z m-2612
-733 c-6 -7 -56 -71 -112 -142 -57 -71 -114 -147 -129 -168 -34 -52 -57 -62
-194 -87 -199 -36 -332 -101 -364 -178 -20 -46 -20 -139 0 -205 17 -58 70
-152 115 -203 55 -63 61 -123 30 -299 -12 -70 -30 -99 -54 -90 -35 14 -194
290 -295 513 -78 173 -120 293 -127 366 -5 55 -3 63 22 93 33 40 184 141 284
192 173 86 430 173 606 204 106 19 231 21 218 4z m4512 -2947 c79 -159 197
-421 239 -534 65 -173 166 -573 190 -749 9 -67 0 -70 -190 -79 -190 -8 -213
-13 -336 -75 -48 -24 -90 -44 -93 -44 -3 0 -5 96 -5 213 0 279 -15 504 -40
603 -27 107 -75 200 -165 319 -75 100 -95 139 -79 155 12 11 417 300 421 300
1 0 28 -49 58 -109z m2603 -884 c12 -12 41 -65 65 -117 156 -335 350 -922 417
-1260 55 -276 52 -315 -28 -373 -101 -74 -376 -222 -392 -212 -6 4 -10 65 -10
138 -1 456 -64 770 -236 1165 -66 152 -181 376 -253 491 -28 46 -50 85 -49 86
8 6 231 77 283 89 33 8 87 15 121 15 51 1 64 -3 82 -22z m-1104 -381 c19 -34
69 -140 111 -236 277 -626 417 -1091 427 -1424 l3 -100 -85 -17 c-98 -20 -347
-56 -436 -62 l-61 -5 -6 427 c-6 455 -10 506 -62 686 -38 132 -114 329 -205
533 -44 99 -80 185 -80 191 0 11 68 33 230 75 111 28 110 29 164 -68z"/>
<path d="M5364 6460 c-49 -15 -119 -83 -145 -142 -31 -71 -32 -175 -2 -233 45
-85 130 -135 246 -143 60 -4 72 -2 99 18 23 17 39 21 65 17 28 -5 34 -3 29 9
-3 8 5 36 18 62 30 58 48 154 40 202 -21 117 -132 209 -259 216 -33 2 -74 -1
-91 -6z"/>
<path d="M4418 5830 c-150 -27 -317 -119 -369 -204 -78 -128 88 -278 311 -280
74 -1 92 3 143 28 92 45 174 162 197 284 14 78 -3 121 -60 149 -52 26 -152 36
-222 23z"/>
<path d="M5042 5488 c-5 -7 -26 -45 -46 -85 -20 -40 -50 -88 -66 -107 -32 -35
-103 -76 -134 -76 -9 0 -72 21 -139 46 -125 47 -185 57 -213 33 -9 -7 -33 -47
-54 -88 -49 -98 -81 -139 -132 -173 -54 -37 -91 -36 -194 7 -47 20 -105 38
-129 42 -40 5 -47 2 -74 -25 -37 -36 -39 -59 -9 -98 38 -48 59 -62 173 -119
73 -36 133 -75 180 -115 166 -146 331 -172 559 -89 98 36 157 70 218 127 62
58 85 121 98 262 8 93 16 126 51 213 52 127 58 207 20 238 -27 22 -93 26 -109
7z"/>
</g>
</svg>
